<svg width="329.736" height="33.253"  viewBox="0 0 329.736 33.253" xmlns="http://www.w3.org/2000/svg"><g id="svgGroup" stroke-linecap="round" fill-rule="evenodd" font-size="9pt" stroke="#000" stroke-width="0.25mm"  fill="none" style="stroke:#000;stroke-width:0.25mm;fill:none"><path d="M 10.059 6.885 L 20.166 26.904 Q 20.308 27.141 20.541 27.034 A 0.503 0.503 0 0 0 20.557 27.026 A 0.683 0.683 0 0 0 20.898 26.66 L 24.951 18.213 L 19.824 7.666 A 36.575 36.575 0 0 0 18.762 5.656 Q 18.209 4.688 17.656 3.884 A 18.077 18.077 0 0 0 16.992 2.979 A 1.847 1.847 0 0 0 16.614 2.63 Q 16.419 2.491 16.166 2.371 A 4.675 4.675 0 0 0 15.674 2.173 A 8.215 8.215 0 0 0 15.127 2.005 Q 14.563 1.855 14.16 1.855 A 0.117 0.117 0 0 1 14.061 1.79 Q 13.988 1.674 13.97 1.35 A 4.211 4.211 0 0 1 13.965 1.123 A 1.939 1.939 0 0 1 13.977 0.897 Q 14.007 0.647 14.107 0.503 A 0.473 0.473 0 0 1 14.16 0.439 A 2271.646 2271.646 0 0 0 15.485 0.497 Q 19.562 0.672 20.236 0.683 A 4.742 4.742 0 0 0 20.313 0.684 A 4.449 4.449 0 0 0 20.435 0.68 Q 21.118 0.653 25.391 0.439 A 0.517 0.517 0 0 1 25.428 0.547 Q 25.476 0.741 25.468 1.127 A 6.375 6.375 0 0 1 25.464 1.245 Q 25.439 1.855 25.293 1.855 A 3.942 3.942 0 0 0 24.995 1.868 Q 24.835 1.88 24.655 1.904 A 7.643 7.643 0 0 0 24.487 1.929 A 2.152 2.152 0 0 0 24.079 2.038 Q 23.787 2.146 23.462 2.344 A 1.352 1.352 0 0 0 23.154 2.594 A 0.981 0.981 0 0 0 22.9 3.271 A 4.092 4.092 0 0 0 22.989 4.071 Q 23.159 4.913 23.651 6.065 A 21.043 21.043 0 0 0 24.023 6.885 L 27.246 13.477 L 30.664 6.299 A 8.538 8.538 0 0 0 31.125 5.034 Q 31.325 4.301 31.345 3.62 A 5.153 5.153 0 0 0 31.348 3.467 A 1.107 1.107 0 0 0 30.863 2.541 Q 30.681 2.406 30.43 2.299 A 3 3 0 0 0 30.298 2.246 Q 29.521 1.957 28.892 1.882 A 3.585 3.585 0 0 0 28.467 1.855 Q 28.295 1.855 28.274 1.383 A 3.168 3.168 0 0 1 28.272 1.245 Q 28.272 0.635 28.467 0.439 A 385.667 385.667 0 0 0 29.83 0.522 Q 32.349 0.671 33.255 0.683 A 11.146 11.146 0 0 0 33.398 0.684 A 4.449 4.449 0 0 0 33.521 0.68 Q 34.204 0.653 38.477 0.439 A 0.517 0.517 0 0 1 38.514 0.547 Q 38.562 0.741 38.553 1.127 A 6.375 6.375 0 0 1 38.55 1.245 Q 38.525 1.855 38.379 1.855 A 2.023 2.023 0 0 0 38.091 1.88 Q 37.592 1.953 36.694 2.246 Q 35.546 2.621 35.05 3.176 A 1.782 1.782 0 0 0 35.01 3.223 Q 34.131 4.297 32.178 8.252 L 28.418 15.967 L 33.74 26.904 Q 34.014 27.405 34.287 26.759 A 2.582 2.582 0 0 0 34.326 26.66 L 43.066 6.592 Q 43.722 5.011 43.86 4.008 A 3.635 3.635 0 0 0 43.897 3.516 A 1.163 1.163 0 0 0 43.402 2.554 Q 43.219 2.414 42.968 2.302 A 2.945 2.945 0 0 0 42.896 2.271 Q 42.114 1.947 41.467 1.876 A 3.239 3.239 0 0 0 41.113 1.855 Q 40.941 1.855 40.921 1.383 A 3.168 3.168 0 0 1 40.918 1.245 Q 40.918 0.635 41.113 0.439 A 369.545 369.545 0 0 0 42.479 0.522 Q 45.221 0.684 46.094 0.684 Q 47.217 0.684 47.949 0.635 A 361.471 361.471 0 0 1 49.268 0.549 A 397.525 397.525 0 0 1 49.463 0.537 A 182.92 182.92 0 0 0 50.22 0.488 A 149.879 149.879 0 0 0 50.928 0.439 Q 51.025 0.732 51.025 1.172 A 3.651 3.651 0 0 1 51.02 1.387 Q 51.001 1.696 50.925 1.801 A 0.115 0.115 0 0 1 50.83 1.855 Q 50.342 1.855 49.268 2.222 A 4.938 4.938 0 0 0 48.565 2.52 Q 48 2.816 47.656 3.223 A 12.078 12.078 0 0 0 46.688 4.546 Q 45.771 5.978 44.853 8.087 A 39.461 39.461 0 0 0 44.824 8.154 L 34.473 31.592 A 4.308 4.308 0 0 1 34.086 32.266 Q 33.843 32.606 33.564 32.816 A 1.619 1.619 0 0 1 32.568 33.154 A 0.553 0.553 0 0 1 32.373 33.121 Q 32.233 33.069 32.144 32.934 A 0.624 0.624 0 0 1 32.129 32.91 L 26.172 20.703 L 20.898 31.592 A 4.308 4.308 0 0 1 20.511 32.266 Q 20.269 32.606 19.99 32.816 A 1.619 1.619 0 0 1 18.994 33.154 A 0.553 0.553 0 0 1 18.799 33.121 Q 18.659 33.069 18.57 32.934 A 0.624 0.624 0 0 1 18.555 32.91 L 5.859 7.666 A 36.575 36.575 0 0 0 4.797 5.656 Q 4.244 4.688 3.691 3.884 A 18.077 18.077 0 0 0 3.027 2.979 A 1.847 1.847 0 0 0 2.65 2.63 Q 2.454 2.491 2.201 2.371 A 4.675 4.675 0 0 0 1.709 2.173 A 8.215 8.215 0 0 0 1.163 2.005 Q 0.598 1.855 0.195 1.855 A 0.125 0.125 0 0 1 0.088 1.787 Q 0.017 1.675 0.003 1.378 A 3.358 3.358 0 0 1 0 1.221 A 2.759 2.759 0 0 1 0.011 0.968 Q 0.034 0.719 0.106 0.569 A 0.471 0.471 0 0 1 0.195 0.439 A 2271.646 2271.646 0 0 0 1.52 0.497 Q 5.598 0.672 6.271 0.683 A 4.742 4.742 0 0 0 6.348 0.684 A 4.74 4.74 0 0 0 6.481 0.68 Q 7.097 0.657 10.304 0.498 A 3249.296 3249.296 0 0 0 11.475 0.439 A 0.517 0.517 0 0 1 11.512 0.547 Q 11.56 0.741 11.552 1.127 A 6.375 6.375 0 0 1 11.548 1.245 Q 11.523 1.855 11.377 1.855 A 4.026 4.026 0 0 0 11.1 1.866 Q 10.852 1.883 10.547 1.929 A 2.092 2.092 0 0 0 10.089 2.055 Q 9.884 2.136 9.668 2.262 A 4.055 4.055 0 0 0 9.497 2.368 Q 8.936 2.734 8.936 3.271 Q 8.936 4.736 10.059 6.885 Z M 271.582 7.422 L 271.582 18.311 Q 271.582 22.456 272.905 25.334 A 10.691 10.691 0 0 0 273.926 27.1 A 7.497 7.497 0 0 0 279.395 30.306 A 10.291 10.291 0 0 0 280.566 30.371 A 8.89 8.89 0 0 0 284.389 29.607 Q 288.13 27.845 288.78 22.014 A 23.804 23.804 0 0 0 288.916 19.385 L 288.916 7.178 A 41.759 41.759 0 0 0 288.895 5.792 Q 288.831 3.87 288.574 2.881 A 0.459 0.459 0 0 0 288.422 2.693 Q 288.144 2.472 287.405 2.259 A 11.318 11.318 0 0 0 286.89 2.124 A 26.878 26.878 0 0 0 286.187 1.966 Q 285.195 1.758 284.717 1.758 Q 284.522 1.758 284.522 1.196 Q 284.522 0.761 284.639 0.545 A 0.461 0.461 0 0 1 284.717 0.439 A 59.754 59.754 0 0 0 285.055 0.464 Q 285.768 0.515 287.256 0.61 Q 288.565 0.694 289.597 0.721 A 34.805 34.805 0 0 0 290.479 0.732 A 28.406 28.406 0 0 0 291.429 0.715 Q 292.411 0.682 293.677 0.586 Q 295.395 0.455 295.854 0.441 A 3.113 3.113 0 0 1 295.947 0.439 Q 296.045 0.732 296.045 1.172 A 2.684 2.684 0 0 1 296.039 1.356 Q 296.011 1.758 295.85 1.758 A 2.418 2.418 0 0 0 295.581 1.777 Q 295.004 1.843 293.726 2.148 Q 292.09 2.539 291.992 2.881 A 9.18 9.18 0 0 0 291.803 3.852 Q 291.602 5.246 291.602 7.422 L 291.602 19.287 Q 291.602 25.868 289.202 28.96 A 7.124 7.124 0 0 1 288.428 29.81 Q 285.649 32.396 280.812 32.718 A 21.345 21.345 0 0 1 279.395 32.764 A 15.802 15.802 0 0 1 275.794 32.378 Q 273.101 31.748 271.216 30.089 A 9.789 9.789 0 0 1 270.459 29.346 Q 267.453 26.058 267.339 18.885 A 35.981 35.981 0 0 1 267.334 18.311 L 267.334 7.227 A 43.013 43.013 0 0 0 267.313 5.82 Q 267.249 3.87 266.992 2.881 A 0.507 0.507 0 0 0 266.838 2.679 Q 266.516 2.406 265.601 2.173 Q 264.355 1.855 263.721 1.855 A 0.125 0.125 0 0 1 263.614 1.787 Q 263.543 1.675 263.529 1.378 A 3.358 3.358 0 0 1 263.525 1.221 A 2.759 2.759 0 0 1 263.536 0.968 Q 263.559 0.719 263.631 0.569 A 0.471 0.471 0 0 1 263.721 0.439 A 4943.983 4943.983 0 0 0 265.041 0.497 Q 268.736 0.656 269.43 0.68 A 6.207 6.207 0 0 0 269.58 0.684 A 16.17 16.17 0 0 0 270.017 0.675 Q 271.277 0.638 275.244 0.439 Q 275.336 0.714 275.341 1.075 A 3.052 3.052 0 0 1 275.342 1.123 A 4.3 4.3 0 0 1 275.337 1.334 Q 275.313 1.825 275.165 1.854 A 0.098 0.098 0 0 1 275.147 1.855 A 2.377 2.377 0 0 0 274.864 1.876 Q 274.4 1.932 273.571 2.149 A 25.352 25.352 0 0 0 273.389 2.197 A 8.808 8.808 0 0 0 272.954 2.325 Q 272.332 2.528 272.122 2.73 A 0.348 0.348 0 0 0 272.022 2.881 A 11.656 11.656 0 0 0 271.771 4.188 Q 271.582 5.563 271.582 7.422 Z M 97.314 18.652 L 97.314 25.83 Q 97.314 28.671 97.609 29.781 A 2.599 2.599 0 0 0 97.705 30.078 A 0.973 0.973 0 0 0 97.987 30.458 Q 98.284 30.716 98.848 30.921 A 6.675 6.675 0 0 0 99.438 31.104 A 23.258 23.258 0 0 0 100.13 31.274 Q 101.065 31.489 101.541 31.494 A 2.138 2.138 0 0 0 101.563 31.494 A 0.121 0.121 0 0 1 101.665 31.561 Q 101.736 31.672 101.753 31.972 A 3.699 3.699 0 0 1 101.758 32.178 Q 101.758 32.617 101.66 32.91 Q 97.671 32.711 95.964 32.674 A 31.187 31.187 0 0 0 95.313 32.666 L 89.355 32.91 Q 89.231 32.786 89.212 32.239 A 6.073 6.073 0 0 1 89.209 32.031 A 4.305 4.305 0 0 1 89.213 31.848 Q 89.232 31.396 89.355 31.396 Q 90.039 31.396 91.26 31.104 A 6.635 6.635 0 0 0 91.747 30.968 Q 92.48 30.732 92.696 30.417 A 0.579 0.579 0 0 0 92.725 30.371 A 1.308 1.308 0 0 0 92.845 30.012 Q 93.027 29.184 93.059 26.866 A 77.432 77.432 0 0 0 93.066 25.781 L 93.066 7.324 A 39.306 39.306 0 0 0 93.045 5.981 Q 92.999 4.637 92.853 3.748 A 7.032 7.032 0 0 0 92.725 3.125 Q 92.578 2.734 91.284 2.393 A 17.892 17.892 0 0 0 90.678 2.243 Q 90.069 2.105 89.651 2.066 A 3.223 3.223 0 0 0 89.355 2.051 Q 89.16 2.051 89.16 1.465 A 3.26 3.26 0 0 1 89.17 1.208 Q 89.203 0.787 89.355 0.635 L 95.215 0.732 A 53.604 53.604 0 0 0 96.389 0.719 Q 96.91 0.707 97.483 0.686 A 98.877 98.877 0 0 0 98.682 0.635 Q 100.214 0.56 101.404 0.542 A 47.312 47.312 0 0 1 102.1 0.537 A 12.059 12.059 0 0 1 105.042 0.911 A 13.597 13.597 0 0 1 105.469 1.025 Q 107.178 1.514 108.838 2.49 A 7.555 7.555 0 0 1 111.222 4.729 A 9.109 9.109 0 0 1 111.572 5.273 A 7.631 7.631 0 0 1 112.571 8.243 A 9.714 9.714 0 0 1 112.647 9.473 A 6.225 6.225 0 0 1 112.25 11.606 Q 111.962 12.399 111.464 13.22 A 11.932 11.932 0 0 1 111.108 13.77 A 9.979 9.979 0 0 1 107.259 17.08 A 11.914 11.914 0 0 1 106.934 17.236 Q 106.456 17.428 106.633 17.712 A 0.462 0.462 0 0 0 106.641 17.725 A 40.208 40.208 0 0 0 109.265 22.437 A 30.176 30.176 0 0 0 112.256 26.318 Q 116.876 31.372 119.789 31.444 A 3.392 3.392 0 0 0 119.873 31.445 A 1.364 1.364 0 0 1 119.998 31.844 A 1.816 1.816 0 0 1 120.02 32.129 Q 120.02 32.483 119.925 32.741 A 1.164 1.164 0 0 1 119.873 32.861 A 3.74 3.74 0 0 1 119.396 32.956 Q 119.16 32.988 118.891 33.001 A 7.497 7.497 0 0 1 118.555 33.008 A 12.705 12.705 0 0 1 110.184 29.834 Q 108.34 28.284 106.689 25.977 A 64.239 64.239 0 0 1 106.073 25.113 Q 105.803 24.728 105.511 24.303 A 115.6 115.6 0 0 1 104.907 23.413 Q 103.906 21.924 103.442 21.265 A 30.969 30.969 0 0 0 102.942 20.575 A 42.221 42.221 0 0 0 102.368 19.824 Q 101.758 19.043 101.294 18.652 A 4.331 4.331 0 0 0 100.293 18.018 Q 99.756 17.822 98.486 17.822 A 10.289 10.289 0 0 0 98.303 17.824 Q 98.047 17.828 97.9 17.847 A 0.525 0.525 0 0 0 97.717 17.907 Q 97.649 17.944 97.581 18.001 A 1.12 1.12 0 0 0 97.51 18.066 Q 97.348 18.228 97.32 18.524 A 1.374 1.374 0 0 0 97.314 18.652 Z M 307.031 18.652 L 307.031 25.83 Q 307.031 28.671 307.326 29.781 A 2.599 2.599 0 0 0 307.422 30.078 A 0.973 0.973 0 0 0 307.704 30.458 Q 308 30.716 308.564 30.921 A 6.675 6.675 0 0 0 309.155 31.104 A 23.258 23.258 0 0 0 309.847 31.274 Q 310.782 31.489 311.258 31.494 A 2.138 2.138 0 0 0 311.279 31.494 A 0.121 0.121 0 0 1 311.382 31.561 Q 311.453 31.672 311.469 31.972 A 3.699 3.699 0 0 1 311.475 32.178 Q 311.475 32.617 311.377 32.91 Q 307.388 32.711 305.68 32.674 A 31.187 31.187 0 0 0 305.029 32.666 L 299.072 32.91 Q 298.948 32.786 298.929 32.239 A 6.073 6.073 0 0 1 298.926 32.031 A 4.305 4.305 0 0 1 298.929 31.848 Q 298.949 31.396 299.072 31.396 Q 299.756 31.396 300.977 31.104 A 6.635 6.635 0 0 0 301.464 30.968 Q 302.197 30.732 302.413 30.417 A 0.579 0.579 0 0 0 302.441 30.371 A 1.308 1.308 0 0 0 302.562 30.012 Q 302.744 29.184 302.776 26.866 A 77.432 77.432 0 0 0 302.783 25.781 L 302.783 7.324 A 39.306 39.306 0 0 0 302.762 5.981 Q 302.716 4.637 302.57 3.748 A 7.032 7.032 0 0 0 302.441 3.125 Q 302.295 2.734 301.001 2.393 A 17.892 17.892 0 0 0 300.395 2.243 Q 299.786 2.105 299.368 2.066 A 3.223 3.223 0 0 0 299.072 2.051 Q 298.877 2.051 298.877 1.465 A 3.26 3.26 0 0 1 298.886 1.208 Q 298.92 0.787 299.072 0.635 L 304.932 0.732 A 53.604 53.604 0 0 0 306.106 0.719 Q 306.627 0.707 307.2 0.686 A 98.877 98.877 0 0 0 308.398 0.635 Q 309.931 0.56 311.12 0.542 A 47.312 47.312 0 0 1 311.816 0.537 A 12.059 12.059 0 0 1 314.759 0.911 A 13.597 13.597 0 0 1 315.186 1.025 Q 316.895 1.514 318.555 2.49 A 7.555 7.555 0 0 1 320.939 4.729 A 9.109 9.109 0 0 1 321.289 5.273 A 7.631 7.631 0 0 1 322.288 8.243 A 9.714 9.714 0 0 1 322.363 9.473 A 6.225 6.225 0 0 1 321.967 11.606 Q 321.678 12.399 321.18 13.22 A 11.932 11.932 0 0 1 320.825 13.77 A 9.979 9.979 0 0 1 316.976 17.08 A 11.914 11.914 0 0 1 316.65 17.236 Q 316.172 17.428 316.35 17.712 A 0.462 0.462 0 0 0 316.357 17.725 A 40.208 40.208 0 0 0 318.982 22.437 A 30.176 30.176 0 0 0 321.973 26.318 Q 326.593 31.372 329.506 31.444 A 3.392 3.392 0 0 0 329.59 31.445 A 1.364 1.364 0 0 1 329.715 31.844 A 1.816 1.816 0 0 1 329.736 32.129 Q 329.736 32.483 329.641 32.741 A 1.164 1.164 0 0 1 329.59 32.861 A 3.74 3.74 0 0 1 329.113 32.956 Q 328.877 32.988 328.607 33.001 A 7.497 7.497 0 0 1 328.272 33.008 A 12.705 12.705 0 0 1 319.901 29.834 Q 318.057 28.284 316.406 25.977 A 64.239 64.239 0 0 1 315.789 25.113 Q 315.52 24.728 315.228 24.303 A 115.6 115.6 0 0 1 314.624 23.413 Q 313.623 21.924 313.159 21.265 A 30.969 30.969 0 0 0 312.659 20.575 A 42.221 42.221 0 0 0 312.085 19.824 Q 311.475 19.043 311.011 18.652 A 4.331 4.331 0 0 0 310.01 18.018 Q 309.473 17.822 308.203 17.822 A 10.289 10.289 0 0 0 308.02 17.824 Q 307.764 17.828 307.617 17.847 A 0.525 0.525 0 0 0 307.434 17.907 Q 307.366 17.944 307.298 18.001 A 1.12 1.12 0 0 0 307.227 18.066 Q 307.065 18.228 307.037 18.524 A 1.374 1.374 0 0 0 307.031 18.652 Z M 224.17 0 L 225.098 6.982 A 0.969 0.969 0 0 1 224.773 7.191 Q 224.477 7.311 224.027 7.323 A 3.815 3.815 0 0 1 223.926 7.324 A 1.197 1.197 0 0 1 223.763 7.314 Q 223.476 7.275 223.438 7.08 A 16.112 16.112 0 0 0 223.088 5.869 Q 222.699 4.71 222.227 4.055 A 2.619 2.619 0 0 0 221.753 3.54 A 2.668 2.668 0 0 0 221.002 3.133 Q 220.221 2.844 218.976 2.764 A 15.891 15.891 0 0 0 217.969 2.734 A 56.367 56.367 0 0 0 216.337 2.756 Q 212.759 2.86 212.598 3.467 A 8.635 8.635 0 0 0 212.385 4.485 Q 212.214 5.602 212.172 7.238 A 43.487 43.487 0 0 0 212.158 8.35 L 212.158 25.977 Q 212.158 28.777 212.588 30.48 A 8.91 8.91 0 0 0 212.598 30.518 A 0.365 0.365 0 0 0 212.72 30.687 Q 212.944 30.88 213.557 31.065 A 8.784 8.784 0 0 0 213.965 31.177 Q 215.234 31.494 215.723 31.494 A 0.117 0.117 0 0 1 215.822 31.56 Q 215.895 31.676 215.912 32 A 4.211 4.211 0 0 1 215.918 32.227 Q 215.918 32.59 215.834 32.868 A 1.577 1.577 0 0 1 215.82 32.91 Q 211.649 32.702 210.471 32.671 A 12.971 12.971 0 0 0 210.156 32.666 A 5.998 5.998 0 0 0 210.011 32.67 Q 209.327 32.693 205.642 32.852 A 4931.609 4931.609 0 0 0 204.297 32.91 A 0.521 0.521 0 0 1 204.188 32.74 Q 204.121 32.58 204.106 32.329 A 2.559 2.559 0 0 1 204.102 32.178 A 3.651 3.651 0 0 1 204.107 31.963 Q 204.126 31.654 204.202 31.548 A 0.115 0.115 0 0 1 204.297 31.494 A 4.031 4.031 0 0 0 204.702 31.471 Q 205.282 31.412 206.177 31.201 A 7.426 7.426 0 0 0 206.605 31.088 Q 207.449 30.835 207.568 30.518 Q 207.91 29.199 207.91 26.172 L 207.91 8.496 A 64.585 64.585 0 0 0 207.895 7.025 Q 207.83 4.177 207.489 3.501 A 0.851 0.851 0 0 0 207.471 3.467 A 0.716 0.716 0 0 0 207.106 3.19 Q 206.05 2.734 202.197 2.734 A 15.107 15.107 0 0 0 200.954 2.782 Q 199.742 2.882 199.004 3.196 A 2.496 2.496 0 0 0 198.413 3.54 A 2.766 2.766 0 0 0 197.861 4.167 Q 197.215 5.136 196.729 7.08 A 0.256 0.256 0 0 1 196.575 7.266 Q 196.467 7.318 196.284 7.324 A 1.478 1.478 0 0 1 196.24 7.324 A 3.174 3.174 0 0 1 195.834 7.3 Q 195.319 7.233 195.068 6.982 L 195.996 0 A 26.715 26.715 0 0 0 197.19 0.272 Q 198.317 0.499 199.108 0.532 A 6.22 6.22 0 0 0 199.365 0.537 A 93.739 93.739 0 0 1 200.386 0.543 Q 201.535 0.556 203.079 0.594 A 351.796 351.796 0 0 1 204.565 0.635 Q 207.557 0.722 209.592 0.731 A 103.075 103.075 0 0 0 210.059 0.732 A 116.013 116.013 0 0 0 211.209 0.726 Q 212.791 0.711 214.879 0.654 A 344.38 344.38 0 0 0 215.576 0.635 Q 218.156 0.56 219.848 0.542 A 92.553 92.553 0 0 1 220.801 0.537 A 7.733 7.733 0 0 0 221.631 0.487 Q 222.472 0.396 223.604 0.136 A 30.085 30.085 0 0 0 224.17 0 Z M 129.395 7.422 L 129.395 25.83 A 25.255 25.255 0 0 0 129.451 27.577 Q 129.508 28.395 129.622 29.1 A 11.509 11.509 0 0 0 129.834 30.127 Q 129.966 30.566 132.545 30.61 A 35.568 35.568 0 0 0 133.154 30.615 L 135.498 30.615 Q 140.039 30.615 141.65 29.785 Q 142.383 29.395 143.286 28.052 A 10.143 10.143 0 0 0 144.208 26.328 A 13.315 13.315 0 0 0 144.727 24.854 Q 144.813 24.593 145.285 24.564 A 2.033 2.033 0 0 1 145.41 24.561 A 4.578 4.578 0 0 1 145.81 24.577 Q 146.195 24.611 146.425 24.716 A 0.701 0.701 0 0 1 146.631 24.854 A 66.178 66.178 0 0 0 146.492 25.218 Q 146.259 25.836 145.874 26.88 A 184.534 184.534 0 0 0 145.631 27.542 Q 145.336 28.352 145.133 28.94 A 53.546 53.546 0 0 0 145.068 29.126 A 48.196 48.196 0 0 0 144.803 29.925 Q 144.626 30.472 144.434 31.104 Q 144.092 32.225 143.994 32.957 A 5.825 5.825 0 0 0 143.994 32.959 Q 141.455 32.959 136.06 32.813 A 557.308 557.308 0 0 0 133.492 32.748 Q 130.348 32.678 128.067 32.668 A 165.884 165.884 0 0 0 127.344 32.666 L 121.436 32.813 Q 121.306 32.683 121.291 32.174 A 4.788 4.788 0 0 1 121.289 32.031 A 4.305 4.305 0 0 1 121.293 31.848 Q 121.312 31.396 121.436 31.396 Q 122.119 31.396 123.34 31.104 A 6.635 6.635 0 0 0 123.827 30.968 Q 124.56 30.732 124.776 30.417 A 0.579 0.579 0 0 0 124.805 30.371 A 1.308 1.308 0 0 0 124.925 30.012 Q 125.107 29.184 125.139 26.866 A 77.432 77.432 0 0 0 125.147 25.781 L 125.147 7.324 A 45.577 45.577 0 0 0 125.125 5.875 Q 125.061 3.87 124.805 2.881 A 0.507 0.507 0 0 0 124.65 2.679 Q 124.329 2.406 123.413 2.173 Q 122.168 1.855 121.533 1.855 A 0.125 0.125 0 0 1 121.426 1.787 Q 121.355 1.675 121.341 1.378 A 3.358 3.358 0 0 1 121.338 1.221 A 2.759 2.759 0 0 1 121.349 0.968 Q 121.372 0.719 121.444 0.569 A 0.471 0.471 0 0 1 121.533 0.439 A 52.834 52.834 0 0 0 121.874 0.464 Q 122.426 0.503 123.45 0.568 A 691.446 691.446 0 0 0 124.121 0.61 Q 126.051 0.731 127.361 0.732 A 28.876 28.876 0 0 0 127.393 0.732 A 36.242 36.242 0 0 0 129.297 0.684 A 116.272 116.272 0 0 0 130.261 0.629 A 145.024 145.024 0 0 0 131.299 0.562 A 908.532 908.532 0 0 0 131.812 0.526 Q 132.441 0.483 132.908 0.45 A 295.255 295.255 0 0 0 133.057 0.439 Q 133.154 0.732 133.154 1.172 A 3.651 3.651 0 0 1 133.149 1.387 Q 133.13 1.696 133.054 1.801 A 0.115 0.115 0 0 1 132.959 1.855 A 2.377 2.377 0 0 0 132.677 1.876 Q 132.213 1.932 131.383 2.149 A 25.352 25.352 0 0 0 131.201 2.197 A 8.808 8.808 0 0 0 130.766 2.325 Q 130.145 2.528 129.934 2.73 A 0.348 0.348 0 0 0 129.834 2.881 A 11.656 11.656 0 0 0 129.584 4.188 Q 129.395 5.563 129.395 7.422 Z M 155.029 32.764 L 149.121 32.91 A 0.325 0.325 0 0 1 149.054 32.803 Q 148.982 32.629 148.975 32.259 A 4.319 4.319 0 0 1 148.975 32.178 A 4.993 4.993 0 0 1 148.978 31.981 Q 148.994 31.572 149.084 31.507 A 0.061 0.061 0 0 1 149.121 31.494 A 3.462 3.462 0 0 0 149.526 31.467 Q 149.965 31.415 150.583 31.262 A 17.216 17.216 0 0 0 151.001 31.152 A 7.24 7.24 0 0 0 151.498 30.998 Q 152.3 30.714 152.49 30.371 A 1.308 1.308 0 0 0 152.611 30.012 Q 152.792 29.184 152.825 26.866 A 77.432 77.432 0 0 0 152.832 25.781 L 152.832 7.324 A 39.306 39.306 0 0 0 152.811 5.981 Q 152.765 4.637 152.619 3.748 A 7.032 7.032 0 0 0 152.49 3.125 Q 152.344 2.734 151.05 2.393 A 17.892 17.892 0 0 0 150.444 2.243 Q 149.835 2.105 149.417 2.066 A 3.223 3.223 0 0 0 149.121 2.051 Q 148.926 2.051 148.926 1.465 A 3.26 3.26 0 0 1 148.935 1.208 Q 148.969 0.787 149.121 0.635 Q 151.66 0.732 154.932 0.732 A 171.352 171.352 0 0 0 155.922 0.729 Q 157.501 0.72 159.644 0.684 Q 161.977 0.644 163.023 0.636 A 59.075 59.075 0 0 1 163.428 0.635 A 21.761 21.761 0 0 1 168.484 1.189 A 14.507 14.507 0 0 1 175.83 5.322 A 15.515 15.515 0 0 1 180.273 16.357 Q 180.273 23.438 175.781 28.174 A 14.779 14.779 0 0 1 167.882 32.47 A 21.887 21.887 0 0 1 163.379 32.91 A 17.795 17.795 0 0 1 163.078 32.907 Q 162.395 32.894 160.674 32.839 A 718.605 718.605 0 0 1 159.888 32.812 Q 156.982 32.715 155.029 32.764 Z M 53.906 16.748 A 16.385 16.385 0 0 0 58.472 28.418 Q 63.037 33.252 69.482 33.252 A 14.742 14.742 0 0 0 75.464 32.043 A 15.591 15.591 0 0 0 80.518 28.418 A 16.337 16.337 0 0 0 85.107 16.748 A 16.422 16.422 0 0 0 80.518 5.054 A 18.7 18.7 0 0 0 80.156 4.682 A 14.564 14.564 0 0 0 69.482 0.195 A 14.633 14.633 0 0 0 63.496 1.415 A 15.487 15.487 0 0 0 58.472 5.054 A 16.47 16.47 0 0 0 53.906 16.748 Z M 228.516 16.748 A 16.385 16.385 0 0 0 233.081 28.418 Q 237.647 33.252 244.092 33.252 A 14.742 14.742 0 0 0 250.073 32.043 A 15.591 15.591 0 0 0 255.127 28.418 A 16.337 16.337 0 0 0 259.717 16.748 A 16.422 16.422 0 0 0 255.127 5.054 A 18.7 18.7 0 0 0 254.766 4.682 A 14.564 14.564 0 0 0 244.092 0.195 A 14.633 14.633 0 0 0 238.106 1.415 A 15.487 15.487 0 0 0 233.081 5.054 A 16.47 16.47 0 0 0 228.516 16.748 Z M 68.75 2.246 A 8.432 8.432 0 0 0 64.614 3.251 Q 63.033 4.122 61.815 5.747 A 11.639 11.639 0 0 0 61.426 6.299 A 16.198 16.198 0 0 0 58.793 14.202 A 20.097 20.097 0 0 0 58.74 15.674 A 21.398 21.398 0 0 0 59.819 22.503 A 20.286 20.286 0 0 0 60.01 23.047 A 13.746 13.746 0 0 0 63.965 28.833 A 9.333 9.333 0 0 0 70.264 31.152 A 8.103 8.103 0 0 0 75.732 29.126 A 11.958 11.958 0 0 0 79.175 24.097 A 18.349 18.349 0 0 0 80.264 18.313 A 20.914 20.914 0 0 0 80.273 17.676 A 21.363 21.363 0 0 0 79.37 11.414 A 19.943 19.943 0 0 0 79.004 10.327 A 13.768 13.768 0 0 0 75.049 4.565 A 9.333 9.333 0 0 0 68.75 2.246 Z M 243.359 2.246 A 8.432 8.432 0 0 0 239.223 3.251 Q 237.642 4.122 236.424 5.747 A 11.639 11.639 0 0 0 236.035 6.299 A 16.198 16.198 0 0 0 233.403 14.202 A 20.097 20.097 0 0 0 233.35 15.674 A 21.398 21.398 0 0 0 234.429 22.503 A 20.286 20.286 0 0 0 234.619 23.047 A 13.746 13.746 0 0 0 238.574 28.833 A 9.333 9.333 0 0 0 244.873 31.152 A 8.103 8.103 0 0 0 250.342 29.126 A 11.958 11.958 0 0 0 253.784 24.097 A 18.349 18.349 0 0 0 254.873 18.313 A 20.914 20.914 0 0 0 254.883 17.676 A 21.363 21.363 0 0 0 253.979 11.414 A 19.943 19.943 0 0 0 253.613 10.327 A 13.768 13.768 0 0 0 249.658 4.565 A 9.333 9.333 0 0 0 243.359 2.246 Z M 157.08 6.641 L 157.08 25.977 A 9.926 9.926 0 0 0 157.312 28.16 A 8.273 8.273 0 0 0 157.813 29.688 Q 157.997 30.149 160.162 30.392 A 23.458 23.458 0 0 0 160.425 30.42 A 74.519 74.519 0 0 0 161.565 30.527 Q 162.795 30.632 163.663 30.657 A 17.588 17.588 0 0 0 164.16 30.664 A 12.234 12.234 0 0 0 169.204 29.7 Q 174.443 27.351 175.245 19.273 A 31.515 31.515 0 0 0 175.391 16.162 A 17.453 17.453 0 0 0 174.763 11.383 A 14.077 14.077 0 0 0 172.437 6.689 A 9.587 9.587 0 0 0 165.928 2.932 A 14.349 14.349 0 0 0 163.818 2.783 L 163.574 2.783 Q 158.301 2.783 157.715 3.564 A 2.523 2.523 0 0 0 157.387 4.222 Q 157.153 4.901 157.097 5.949 A 13.063 13.063 0 0 0 157.08 6.641 Z M 97.314 8.398 L 97.314 14.307 Q 97.314 15.723 101.563 15.723 L 102.783 15.723 Q 104.492 15.723 106.323 14.014 A 5.677 5.677 0 0 0 108.1 10.416 A 7.937 7.937 0 0 0 108.154 9.473 A 9.705 9.705 0 0 0 107.815 6.787 Q 106.632 2.686 101.318 2.686 A 22.889 22.889 0 0 0 100.07 2.717 Q 98.888 2.782 98.085 2.979 A 5.835 5.835 0 0 0 97.9 3.027 A 0.329 0.329 0 0 0 97.749 3.116 Q 97.661 3.203 97.595 3.365 A 1.341 1.341 0 0 0 97.583 3.394 A 1.298 1.298 0 0 0 97.532 3.572 Q 97.445 3.962 97.388 4.858 A 25.258 25.258 0 0 0 97.356 5.51 Q 97.315 6.578 97.314 8.312 A 154.547 154.547 0 0 0 97.314 8.398 Z M 307.031 8.398 L 307.031 14.307 Q 307.031 15.723 311.279 15.723 L 312.5 15.723 Q 314.209 15.723 316.04 14.014 A 5.677 5.677 0 0 0 317.817 10.416 A 7.937 7.937 0 0 0 317.871 9.473 A 9.705 9.705 0 0 0 317.532 6.787 Q 316.349 2.686 311.035 2.686 A 22.889 22.889 0 0 0 309.787 2.717 Q 308.605 2.782 307.801 2.979 A 5.835 5.835 0 0 0 307.617 3.027 A 0.329 0.329 0 0 0 307.465 3.116 Q 307.378 3.203 307.311 3.365 A 1.341 1.341 0 0 0 307.3 3.394 A 1.298 1.298 0 0 0 307.249 3.572 Q 307.162 3.962 307.105 4.858 A 25.258 25.258 0 0 0 307.072 5.51 Q 307.032 6.578 307.031 8.312 A 154.547 154.547 0 0 0 307.031 8.398 Z" vector-effect="non-scaling-stroke"/></g></svg>